<svg id="visual" viewBox="0 0 960 540" width="960" height="540" xml:space="preserve" preserveAspectRatio='none' xmlns="http://www.w3.org/2000/svg" xmlns:xlink="http://www.w3.org/1999/xlink" version="1.1"><path d="M0 343L26.7 340.7C53.3 338.3 106.7 333.7 160 335.3C213.3 337 266.7 345 320 352.5C373.3 360 426.7 367 480 370.7C533.3 374.3 586.7 374.7 640 368.5C693.3 362.3 746.7 349.7 800 347.7C853.3 345.7 906.7 354.3 933.3 358.7L960 363L960 0L933.3 0C906.7 0 853.3 0 800 0C746.7 0 693.3 0 640 0C586.7 0 533.3 0 480 0C426.7 0 373.3 0 320 0C266.7 0 213.3 0 160 0C106.7 0 53.3 0 26.7 0L0 0Z" fill="#c1f4e3"></path><path d="M0 316L26.7 315.8C53.3 315.7 106.7 315.3 160 319.2C213.3 323 266.7 331 320 328.3C373.3 325.7 426.7 312.3 480 308.3C533.3 304.3 586.7 309.7 640 312.2C693.3 314.7 746.7 314.3 800 316C853.3 317.7 906.7 321.3 933.3 323.2L960 325L960 0L933.3 0C906.7 0 853.3 0 800 0C746.7 0 693.3 0 640 0C586.7 0 533.3 0 480 0C426.7 0 373.3 0 320 0C266.7 0 213.3 0 160 0C106.7 0 53.3 0 26.7 0L0 0Z" fill="#aae6da"></path><path d="M0 260L26.7 265.2C53.3 270.3 106.7 280.7 160 287.8C213.3 295 266.7 299 320 293.2C373.3 287.3 426.7 271.7 480 273.3C533.3 275 586.7 294 640 297C693.3 300 746.7 287 800 279C853.3 271 906.7 268 933.3 266.5L960 265L960 0L933.3 0C906.7 0 853.3 0 800 0C746.7 0 693.3 0 640 0C586.7 0 533.3 0 480 0C426.7 0 373.3 0 320 0C266.7 0 213.3 0 160 0C106.7 0 53.3 0 26.7 0L0 0Z" fill="#92d9d3"></path><path d="M0 259L26.7 257.8C53.3 256.7 106.7 254.3 160 252C213.3 249.7 266.7 247.3 320 245.2C373.3 243 426.7 241 480 244.2C533.3 247.3 586.7 255.7 640 258C693.3 260.3 746.7 256.7 800 250.7C853.3 244.7 906.7 236.3 933.3 232.2L960 228L960 0L933.3 0C906.7 0 853.3 0 800 0C746.7 0 693.3 0 640 0C586.7 0 533.3 0 480 0C426.7 0 373.3 0 320 0C266.7 0 213.3 0 160 0C106.7 0 53.3 0 26.7 0L0 0Z" fill="#7bcbcc"></path><path d="M0 203L26.7 210.5C53.3 218 106.7 233 160 234.5C213.3 236 266.7 224 320 223.3C373.3 222.7 426.7 233.3 480 236C533.3 238.7 586.7 233.3 640 227.5C693.3 221.7 746.7 215.3 800 215.8C853.3 216.3 906.7 223.7 933.3 227.3L960 231L960 0L933.3 0C906.7 0 853.3 0 800 0C746.7 0 693.3 0 640 0C586.7 0 533.3 0 480 0C426.7 0 373.3 0 320 0C266.7 0 213.3 0 160 0C106.7 0 53.3 0 26.7 0L0 0Z" fill="#63bdc6"></path><path d="M0 209L26.7 204.2C53.3 199.3 106.7 189.7 160 187.7C213.3 185.7 266.7 191.3 320 196.8C373.3 202.3 426.7 207.7 480 204.7C533.3 201.7 586.7 190.3 640 187.2C693.3 184 746.7 189 800 192.2C853.3 195.3 906.7 196.7 933.3 197.3L960 198L960 0L933.3 0C906.7 0 853.3 0 800 0C746.7 0 693.3 0 640 0C586.7 0 533.3 0 480 0C426.7 0 373.3 0 320 0C266.7 0 213.3 0 160 0C106.7 0 53.3 0 26.7 0L0 0Z" fill="#4caec1"></path><path d="M0 162L26.7 165.2C53.3 168.3 106.7 174.7 160 177.7C213.3 180.7 266.7 180.3 320 183.2C373.3 186 426.7 192 480 194.2C533.3 196.3 586.7 194.7 640 189.7C693.3 184.7 746.7 176.3 800 177C853.3 177.7 906.7 187.3 933.3 192.2L960 197L960 0L933.3 0C906.7 0 853.3 0 800 0C746.7 0 693.3 0 640 0C586.7 0 533.3 0 480 0C426.7 0 373.3 0 320 0C266.7 0 213.3 0 160 0C106.7 0 53.3 0 26.7 0L0 0Z" fill="#34a0bb"></path><path d="M0 145L26.7 148.2C53.3 151.3 106.7 157.7 160 161.5C213.3 165.3 266.7 166.7 320 164C373.3 161.3 426.7 154.7 480 148.3C533.3 142 586.7 136 640 132.8C693.3 129.7 746.7 129.3 800 133.7C853.3 138 906.7 147 933.3 151.5L960 156L960 0L933.3 0C906.7 0 853.3 0 800 0C746.7 0 693.3 0 640 0C586.7 0 533.3 0 480 0C426.7 0 373.3 0 320 0C266.7 0 213.3 0 160 0C106.7 0 53.3 0 26.7 0L0 0Z" fill="#1891b5"></path><path d="M0 127L26.7 125.2C53.3 123.3 106.7 119.7 160 119.7C213.3 119.7 266.7 123.3 320 126.7C373.3 130 426.7 133 480 130.2C533.3 127.3 586.7 118.7 640 117.5C693.3 116.3 746.7 122.7 800 124.3C853.3 126 906.7 123 933.3 121.5L960 120L960 0L933.3 0C906.7 0 853.3 0 800 0C746.7 0 693.3 0 640 0C586.7 0 533.3 0 480 0C426.7 0 373.3 0 320 0C266.7 0 213.3 0 160 0C106.7 0 53.3 0 26.7 0L0 0Z" fill="#0082af"></path><path d="M0 89L26.7 90C53.3 91 106.7 93 160 93.5C213.3 94 266.7 93 320 92.2C373.3 91.3 426.7 90.7 480 89.3C533.3 88 586.7 86 640 87.5C693.3 89 746.7 94 800 93.7C853.3 93.3 906.7 87.7 933.3 84.8L960 82L960 0L933.3 0C906.7 0 853.3 0 800 0C746.7 0 693.3 0 640 0C586.7 0 533.3 0 480 0C426.7 0 373.3 0 320 0C266.7 0 213.3 0 160 0C106.7 0 53.3 0 26.7 0L0 0Z" fill="#0073a7"></path><path d="M0 68L26.7 69.7C53.3 71.3 106.7 74.7 160 75.5C213.3 76.3 266.7 74.7 320 74.5C373.3 74.3 426.7 75.7 480 74.5C533.3 73.3 586.7 69.7 640 68.8C693.3 68 746.7 70 800 68.8C853.3 67.7 906.7 63.3 933.3 61.2L960 59L960 0L933.3 0C906.7 0 853.3 0 800 0C746.7 0 693.3 0 640 0C586.7 0 533.3 0 480 0C426.7 0 373.3 0 320 0C266.7 0 213.3 0 160 0C106.7 0 53.3 0 26.7 0L0 0Z" fill="#00639e"></path><path d="M0 46L26.7 46.3C53.3 46.7 106.7 47.3 160 46.5C213.3 45.7 266.7 43.3 320 42.2C373.3 41 426.7 41 480 41.8C533.3 42.7 586.7 44.3 640 43C693.3 41.7 746.7 37.3 800 36.7C853.3 36 906.7 39 933.3 40.5L960 42L960 0L933.3 0C906.7 0 853.3 0 800 0C746.7 0 693.3 0 640 0C586.7 0 533.3 0 480 0C426.7 0 373.3 0 320 0C266.7 0 213.3 0 160 0C106.7 0 53.3 0 26.7 0L0 0Z" fill="#005493"></path></svg>