<svg id="visual" viewBox="0 0 3400 400" width="3400" height="400" xml:space="preserve" preserveAspectRatio='none' xmlns="http://www.w3.org/2000/svg" xmlns:xlink="http://www.w3.org/1999/xlink" version="1.1"><path d="M0 77L47.2 73C94.3 69 188.7 61 283.2 57C377.7 53 472.3 53 566.8 53.7C661.3 54.3 755.7 55.7 850 56.3C944.3 57 1038.7 57 1133.2 58.3C1227.7 59.7 1322.3 62.3 1416.8 59.7C1511.3 57 1605.7 49 1700 43.7C1794.3 38.3 1888.7 35.7 1983.2 37C2077.7 38.3 2172.3 43.7 2266.8 49.7C2361.3 55.7 2455.7 62.3 2550 66.3C2644.3 70.3 2738.7 71.7 2833.2 70.3C2927.7 69 3022.3 65 3116.8 66.3C3211.3 67.7 3305.7 74.3 3352.8 77.7L3400 81L3400 0L3352.8 0C3305.7 0 3211.3 0 3116.8 0C3022.3 0 2927.7 0 2833.2 0C2738.7 0 2644.3 0 2550 0C2455.7 0 2361.3 0 2266.8 0C2172.3 0 2077.7 0 1983.2 0C1888.7 0 1794.3 0 1700 0C1605.7 0 1511.3 0 1416.8 0C1322.3 0 1227.7 0 1133.2 0C1038.7 0 944.3 0 850 0C755.7 0 661.3 0 566.8 0C472.3 0 377.7 0 283.2 0C188.7 0 94.3 0 47.2 0L0 0Z" fill="#e6bd4a"></path><path d="M0 141L47.2 145.7C94.3 150.3 188.7 159.7 283.2 157C377.7 154.3 472.3 139.7 566.8 138.3C661.3 137 755.7 149 850 151.7C944.3 154.3 1038.7 147.7 1133.2 142.3C1227.7 137 1322.3 133 1416.8 144.3C1511.3 155.7 1605.7 182.3 1700 195.7C1794.3 209 1888.7 209 1983.2 207.7C2077.7 206.3 2172.3 203.7 2266.8 190.3C2361.3 177 2455.7 153 2550 150.3C2644.3 147.7 2738.7 166.3 2833.2 169C2927.7 171.7 3022.3 158.3 3116.8 150.3C3211.3 142.3 3305.7 139.7 3352.8 138.3L3400 137L3400 79L3352.8 75.7C3305.7 72.3 3211.3 65.7 3116.8 64.3C3022.3 63 2927.7 67 2833.2 68.3C2738.7 69.7 2644.3 68.3 2550 64.3C2455.7 60.3 2361.3 53.7 2266.8 47.7C2172.3 41.7 2077.7 36.3 1983.2 35C1888.7 33.7 1794.3 36.3 1700 41.7C1605.7 47 1511.3 55 1416.8 57.7C1322.3 60.3 1227.7 57.7 1133.2 56.3C1038.7 55 944.3 55 850 54.3C755.7 53.7 661.3 52.3 566.8 51.7C472.3 51 377.7 51 283.2 55C188.7 59 94.3 67 47.2 71L0 75Z" fill="#f2cb59"></path><path d="M0 201L47.2 201C94.3 201 188.7 201 283.2 198.3C377.7 195.7 472.3 190.3 566.8 187.7C661.3 185 755.7 185 850 184.3C944.3 183.7 1038.7 182.3 1133.2 180.3C1227.7 178.3 1322.3 175.7 1416.8 185.7C1511.3 195.7 1605.7 218.3 1700 235.7C1794.3 253 1888.7 265 1983.2 266.3C2077.7 267.7 2172.3 258.3 2266.8 239C2361.3 219.7 2455.7 190.3 2550 187C2644.3 183.7 2738.7 206.3 2833.2 215C2927.7 223.7 3022.3 218.3 3116.8 213C3211.3 207.7 3305.7 202.3 3352.8 199.7L3400 197L3400 135L3352.8 136.3C3305.7 137.7 3211.3 140.3 3116.8 148.3C3022.3 156.3 2927.7 169.7 2833.2 167C2738.7 164.3 2644.3 145.7 2550 148.3C2455.7 151 2361.3 175 2266.8 188.3C2172.3 201.7 2077.7 204.3 1983.2 205.7C1888.7 207 1794.3 207 1700 193.7C1605.7 180.3 1511.3 153.7 1416.8 142.3C1322.3 131 1227.7 135 1133.2 140.3C1038.7 145.7 944.3 152.3 850 149.7C755.7 147 661.3 135 566.8 136.3C472.3 137.7 377.7 152.3 283.2 155C188.7 157.7 94.3 148.3 47.2 143.7L0 139Z" fill="#ffd967"></path><path d="M0 309L47.2 314.3C94.3 319.7 188.7 330.3 283.2 337.7C377.7 345 472.3 349 566.8 344.3C661.3 339.7 755.7 326.3 850 317C944.3 307.7 1038.7 302.3 1133.2 306.3C1227.7 310.3 1322.3 323.7 1416.8 333C1511.3 342.3 1605.7 347.7 1700 350.3C1794.3 353 1888.7 353 1983.2 349C2077.7 345 2172.3 337 2266.8 329.7C2361.3 322.3 2455.7 315.7 2550 317C2644.3 318.3 2738.7 327.7 2833.2 333C2927.7 338.3 3022.3 339.7 3116.8 336.3C3211.3 333 3305.7 325 3352.8 321L3400 317L3400 195L3352.8 197.7C3305.7 200.3 3211.3 205.7 3116.8 211C3022.3 216.3 2927.7 221.7 2833.2 213C2738.7 204.3 2644.3 181.7 2550 185C2455.7 188.3 2361.3 217.7 2266.8 237C2172.3 256.3 2077.7 265.7 1983.2 264.3C1888.7 263 1794.3 251 1700 233.7C1605.7 216.3 1511.3 193.7 1416.8 183.7C1322.3 173.7 1227.7 176.3 1133.2 178.3C1038.7 180.3 944.3 181.7 850 182.3C755.7 183 661.3 183 566.8 185.7C472.3 188.3 377.7 193.7 283.2 196.3C188.7 199 94.3 199 47.2 199L0 199Z" fill="#ffdf80"></path><path d="M0 401L47.2 401C94.3 401 188.7 401 283.2 401C377.7 401 472.3 401 566.8 401C661.3 401 755.7 401 850 401C944.3 401 1038.7 401 1133.2 401C1227.7 401 1322.3 401 1416.8 401C1511.3 401 1605.7 401 1700 401C1794.3 401 1888.7 401 1983.2 401C2077.7 401 2172.3 401 2266.8 401C2361.3 401 2455.7 401 2550 401C2644.3 401 2738.7 401 2833.2 401C2927.7 401 3022.3 401 3116.8 401C3211.3 401 3305.7 401 3352.8 401L3400 401L3400 315L3352.8 319C3305.7 323 3211.3 331 3116.8 334.3C3022.3 337.7 2927.7 336.3 2833.2 331C2738.7 325.7 2644.3 316.3 2550 315C2455.7 313.7 2361.3 320.3 2266.8 327.7C2172.3 335 2077.7 343 1983.2 347C1888.7 351 1794.3 351 1700 348.3C1605.7 345.7 1511.3 340.3 1416.8 331C1322.3 321.7 1227.7 308.3 1133.2 304.3C1038.7 300.3 944.3 305.7 850 315C755.7 324.3 661.3 337.7 566.8 342.3C472.3 347 377.7 343 283.2 335.7C188.7 328.3 94.3 317.7 47.2 312.3L0 307Z" fill="#ffe598"></path></svg>